<svg xmlns="http://www.w3.org/2000/svg" width="118.969" height="54.53" viewBox="0 0 118.969 54.53">
  <path id="logo_mini" data-name="logo mini" d="M231.763,942.093q1.561.144,3.1.325c.423.05.845.1,1.266.155q1.232.155,2.454.331c.365.053.732.1,1.1.158q1.673.256,3.325.551c.311.056.618.117.926.175q1.3.242,2.583.508c.352.073.7.146,1.053.222q1.6.347,3.189.729l.165.038a116.471,116.471,0,0,1,27.594,10.5,89.984,89.984,0,0,0-24.933-13.738V906.583H237.947v4.337c-7.925-6.283-19.669-4.377-19.669-4.377l-.194.3c7.166.061,11.951,2.067,13.309,2.827a23.349,23.349,0,0,1,10.466,11.96V910.249h8.029v30.534a99.955,99.955,0,0,0-18.81-4.041l-.021-.032c.418-.256.837-.52.837-.52a14.276,14.276,0,0,0,3.82-4.264l-3.595-2.014c-3.162,4.657-8.732,5.659-11.1,5.707-12.369.25-13.292-8.108-13.336-8.923-.511-8.929,9.673-10.707,12.141-10.639,8.855.243,11.94,5.777,11.94,5.777l3.643-2.3c-10.119-13.179-24.406-5.726-24.406-5.726s-.135.062-.329.154c-6.2-7.6-17.3-7.606-17.3-7.606l-8.891.009v35.68a89.971,89.971,0,0,0-24.934,13.738,116.047,116.047,0,0,1,26.2-10.132c.67-.171,1.34-.345,2.015-.506.547-.131,1.1-.253,1.651-.378.745-.167,1.49-.335,2.242-.49.48-.1.965-.19,1.447-.285.836-.163,1.674-.323,2.517-.47.418-.073.84-.139,1.261-.209.906-.149,1.815-.294,2.731-.425.835-.119,1.673-.235,2.515-.339.983-.122,1.975-.225,2.966-.327a137.876,137.876,0,0,1,13.937-.716q6.307,0,12.417.557l0,0ZM188.093,910h5.569a21.7,21.7,0,0,1,13.935,5.9c-7.14,6.4-5.117,15.357-.2,19.435q.795.659,1.587,1.207-4.216.407-8.3,1.146a22.682,22.682,0,0,1-4.438-6.823v7.727q-4.165.946-8.154,2.223Zm3.7,43.006h1.367v7.713h-1.578v-4.439c0-.216.01-.45.03-.7l-2.044,3.967a.683.683,0,0,1-.257.281.713.713,0,0,1-.369.1H188.7a.712.712,0,0,1-.368-.1.679.679,0,0,1-.257-.281l-2.055-3.973c.014.123.024.246.032.369s.01.234.01.337v4.439h-1.579V953h1.571a.42.42,0,0,1,.156.026.388.388,0,0,1,.125.082.685.685,0,0,1,.109.157l1.987,3.919c.07.134.137.275.2.418s.129.294.189.446q.09-.234.19-.454c.067-.146.137-.288.207-.427l1.981-3.9a.659.659,0,0,1,.109-.157.376.376,0,0,1,.124-.082.417.417,0,0,1,.156-.026ZM206.161,953h1.79v4.573a3.573,3.573,0,0,1-.231,1.3,2.9,2.9,0,0,1-.659,1.02,2.965,2.965,0,0,1-1.044.669,4.143,4.143,0,0,1-2.77,0,2.974,2.974,0,0,1-1.044-.669,2.886,2.886,0,0,1-.658-1.02,3.628,3.628,0,0,1-.227-1.3V953h1.791v4.568a2.364,2.364,0,0,0,.1.727,1.521,1.521,0,0,0,.3.545,1.283,1.283,0,0,0,.479.345,1.8,1.8,0,0,0,1.287,0,1.3,1.3,0,0,0,.48-.342,1.526,1.526,0,0,0,.3-.543,2.381,2.381,0,0,0,.1-.728Zm15.109,0h1.579v7.719h-.932a.857.857,0,0,1-.35-.063.735.735,0,0,1-.276-.234l-3.64-4.6c.011.134.02.265.028.394s.01.25.01.363v4.138h-1.58V953h.944a1.759,1.759,0,0,1,.2.011.487.487,0,0,1,.143.04.469.469,0,0,1,.122.083,1.3,1.3,0,0,1,.132.143l3.666,4.634c-.014-.147-.024-.291-.032-.431s-.01-.271-.01-.394Zm15.746,1.1a3.724,3.724,0,0,0-1.264-.806,4.42,4.42,0,0,0-1.64-.293h-3v7.719h3a4.478,4.478,0,0,0,1.64-.289,3.7,3.7,0,0,0,1.264-.806,3.577,3.577,0,0,0,.812-1.224,4.246,4.246,0,0,0,0-3.083A3.556,3.556,0,0,0,237.016,954.1Zm-.88,3.8a2.2,2.2,0,0,1-.426.78,1.872,1.872,0,0,1-.68.494,2.327,2.327,0,0,1-.917.171h-1.2v-4.963h1.2a2.314,2.314,0,0,1,.917.171,1.858,1.858,0,0,1,.68.491,2.211,2.211,0,0,1,.426.783,3.683,3.683,0,0,1,0,2.072ZM253.3,955.3a3.718,3.718,0,0,0-.814-1.25,3.767,3.767,0,0,0-1.263-.835,4.27,4.27,0,0,0-1.64-.3,4.32,4.32,0,0,0-1.642.3,3.786,3.786,0,0,0-1.268.832,3.713,3.713,0,0,0-.817,1.252,4.342,4.342,0,0,0,0,3.114,3.688,3.688,0,0,0,2.085,2.088,4.6,4.6,0,0,0,3.282,0,3.7,3.7,0,0,0,1.263-.834,3.769,3.769,0,0,0,.814-1.254,4.34,4.34,0,0,0,0-3.109Zm-1.693,2.588a2.19,2.19,0,0,1-.426.776,1.819,1.819,0,0,1-.682.485,2.372,2.372,0,0,1-.916.166,2.4,2.4,0,0,1-.924-.166,1.815,1.815,0,0,1-.685-.485,2.191,2.191,0,0,1-.426-.776,3.665,3.665,0,0,1,0-2.067,2.2,2.2,0,0,1,.426-.776,1.839,1.839,0,0,1,.685-.487,2.368,2.368,0,0,1,.924-.17,2.338,2.338,0,0,1,.916.17,1.843,1.843,0,0,1,.682.487,2.194,2.194,0,0,1,.426.776,3.684,3.684,0,0,1,0,2.067Z" transform="translate(-159.55 -906.272)" fill="#fff"/>
</svg>
